<svg width="60" height="38" viewBox="0 0 60 38" fill="none" xmlns="http://www.w3.org/2000/svg">
<path d="M8 0.5H52C56.1421 0.5 59.5 3.85786 59.5 8V30C59.5 34.1421 56.1421 37.5 52 37.5H8C3.85786 37.5 0.5 34.1421 0.5 30V8C0.5 3.85786 3.85786 0.5 8 0.5Z" fill="white" stroke="#D3D3D3"/>
<path d="M9.19232 21.3753C8.69269 21.8265 8.04327 22.0234 7.01615 22.0234H6.58905V16.6315H7.01615C8.04327 16.6315 8.66695 16.8153 9.19232 17.2909C9.74271 17.7809 10.0728 18.539 10.0728 19.3202C10.0728 20.1034 9.74271 20.8859 9.19232 21.3753ZM7.33469 15.2496H5V23.404H7.32208C8.55684 23.404 9.44888 23.1129 10.2316 22.4621C11.1617 21.6921 11.7116 20.5322 11.7116 19.3327C11.7116 16.926 9.91383 15.2496 7.33469 15.2496Z" fill="#231F20"/>
<path d="M12.4438 23.404H14.0339V15.2496H12.4438V23.404Z" fill="#231F20"/>
<path d="M17.9229 18.379C16.9683 18.0253 16.6881 17.7928 16.6881 17.3521C16.6881 16.8383 17.1875 16.4484 17.8729 16.4484C18.3498 16.4484 18.7411 16.644 19.1556 17.1091L19.9879 16.019C19.3038 15.4209 18.4856 15.1153 17.592 15.1153C16.1491 15.1153 15.0487 16.1171 15.0487 17.4516C15.0487 18.5746 15.5612 19.1496 17.0551 19.6871C17.6774 19.9071 17.9941 20.0533 18.1542 20.1521C18.4717 20.359 18.6312 20.6527 18.6312 20.9952C18.6312 21.6559 18.1058 22.1453 17.3959 22.1453C16.6379 22.1453 16.0266 21.7665 15.6605 21.0585L14.6329 22.0471C15.3656 23.1227 16.2456 23.5996 17.4559 23.5996C19.1087 23.5996 20.2684 22.501 20.2684 20.9228C20.2684 19.6265 19.7324 19.0403 17.9229 18.379Z" fill="#231F20"/>
<path d="M20.7702 19.3328C20.7702 21.729 22.652 23.5871 25.0739 23.5871C25.7583 23.5871 26.3445 23.4528 27.0677 23.1129V21.2403C26.4317 21.8766 25.8684 22.1328 25.1475 22.1328C23.5456 22.1328 22.4089 20.9715 22.4089 19.3203C22.4089 17.7552 23.5821 16.5202 25.0739 16.5202C25.8321 16.5202 26.407 16.7909 27.0677 17.4378V15.5665C26.3697 15.2121 25.7957 15.0659 25.1112 15.0659C22.7019 15.0659 20.7702 16.9615 20.7702 19.3328Z" fill="#231F20"/>
<path d="M39.6784 20.7265L37.5033 15.2497H35.7663L39.2264 23.6135H40.0824L43.605 15.2497H41.8806L39.6784 20.7265Z" fill="#231F20"/>
<path d="M44.3237 23.404H48.8345V22.0234H45.9135V19.8221H48.7263V18.4409H45.9135V16.6315H48.8345V15.2496H44.3237V23.404Z" fill="#231F20"/>
<path d="M51.9414 19.0041H51.4762V16.534H51.9658C52.9569 16.534 53.4954 16.949 53.4954 17.7427C53.4954 18.5628 52.9569 19.0041 51.9414 19.0041ZM55.1326 17.6571C55.1326 16.1303 54.0803 15.2496 52.246 15.2496H49.8879V23.404H51.4762V20.1284H51.6841L53.8855 23.404H55.8412L53.2739 19.9684C54.4724 19.7246 55.1326 18.9059 55.1326 17.6571Z" fill="#231F20"/>
<path d="M56.0974 15.7753H56.0678V15.5875H56.0989C56.1836 15.5875 56.2281 15.6178 56.2281 15.6797C56.2281 15.7436 56.1831 15.7753 56.0974 15.7753ZM56.4 15.6778C56.4 15.5342 56.3007 15.4558 56.1273 15.4558H55.8967V16.1744H56.0678V15.8958L56.269 16.1744H56.479L56.2425 15.878C56.3434 15.851 56.4 15.7772 56.4 15.6778Z" fill="#231F20"/>
<path d="M56.1591 16.3292C55.8843 16.3292 55.6597 16.1 55.6597 15.8148C55.6597 15.5283 55.8823 15.2997 56.1591 15.2997C56.4328 15.2997 56.6554 15.5335 56.6554 15.8148C56.6554 16.0974 56.4328 16.3292 56.1591 16.3292ZM56.1617 15.1871C55.8128 15.1871 55.5354 15.4657 55.5354 15.8135C55.5354 16.1619 55.8159 16.4412 56.1617 16.4412C56.5018 16.4412 56.7808 16.1586 56.7808 15.8135C56.7808 15.4703 56.5018 15.1871 56.1617 15.1871Z" fill="#231F20"/>
<path d="M36.2191 19.3183C36.2191 21.7027 34.2863 23.6359 31.9014 23.6359C29.5166 23.6359 27.5835 21.7027 27.5835 19.3183C27.5835 16.9332 29.5166 15 31.9014 15C34.2863 15 36.2191 16.9332 36.2191 19.3183Z" fill="#F36719"/>
</svg>
