<svg width="655" height="160" viewBox="0 0 655 160" fill="none" xmlns="http://www.w3.org/2000/svg">
<g clip-path="url(#clip0_1004_4576)">
<path d="M633.222 77.416C638.848 77.416 642.64 75.7038 644.596 72.2794C645.33 71.0564 645.697 69.7111 645.697 68.2435C645.697 64.8191 643.21 61.8839 638.237 59.4379C637.177 58.8672 635.424 58.0518 632.978 56.9919C626.292 54.2197 621.848 51.6107 619.647 49.1647C617.283 46.4741 616.1 43.335 616.1 39.7476C616.1 34.1217 619.199 30.1674 625.395 27.8844C628.249 26.8245 631.347 26.2945 634.69 26.2945C640.071 26.2945 644.719 27.436 648.632 29.7189C648.632 27.3545 649.203 26.0092 650.344 25.683C650.834 25.6015 651.364 25.5607 651.934 25.5607V40.8483H648.755C648.591 33.3472 644.433 29.5559 636.28 29.4743C630.165 29.4743 626.374 31.2681 624.906 34.8555C624.498 35.8339 624.294 36.8531 624.294 37.913C624.294 41.419 626.822 44.395 631.877 46.841C633.019 47.4117 634.812 48.1863 637.258 49.1647C643.863 51.8553 648.265 54.4236 650.467 56.8696C652.831 59.4787 654.013 62.5769 654.013 66.1644C654.013 72.7686 650.507 77.1714 643.496 79.3728C640.805 80.2697 637.87 80.7181 634.69 80.7181C628.82 80.6366 623.724 79.169 619.402 76.3153C619.402 78.4352 618.872 79.6582 617.813 79.9843C617.323 80.0659 616.753 80.1066 616.1 80.1066V61.517H619.525C619.688 72.0348 624.254 77.3345 633.222 77.416Z" fill="#F58025"/>
<path d="M583.901 76.4376C584.391 76.4376 584.798 76.4784 585.125 76.5599C586.348 76.723 586.959 77.7014 586.959 79.4951H560.053V76.4376C562.825 76.4376 564.823 76.2338 566.046 75.8261C568.166 75.0923 569.225 72.8502 569.225 69.0996V3.05751H560.053V0H578.398V53.4452L603.103 30.5751H593.93V27.5175H614.721C614.721 27.9252 614.68 28.3329 614.599 28.7405C614.436 29.9635 613.457 30.5751 611.664 30.5751C610.848 30.5751 610.114 30.6566 609.462 30.8197C607.995 31.1458 605.834 32.6542 602.98 35.3448L591.484 46.1072L611.174 76.4376H615.577C616.066 76.4376 616.474 76.4784 616.8 76.5599C618.023 76.723 618.635 77.7014 618.635 79.4951H602.369L585.125 52.0999L578.398 58.3372V76.4376H583.901Z" fill="#F58025"/>
<path d="M552.559 80.7181C546.852 80.6366 543.509 76.9676 542.53 69.7111C541.796 71.4233 540.696 73.054 539.228 74.6031C535.152 78.6798 530.137 80.7181 524.185 80.7181C521.739 80.7181 519.416 80.2697 517.214 79.3728C511.751 77.0899 509.02 72.8501 509.02 66.6536C509.02 64.8599 509.265 63.1884 509.754 61.6393C512.526 53.649 523.492 49.6539 542.653 49.6539V41.9489C542.408 34.0402 538.454 29.8412 530.789 29.352C527.528 29.352 525.123 30.3712 523.574 32.4095C523.166 32.9803 522.392 34.774 521.25 37.7907C520.353 40.1552 518.967 41.3375 517.092 41.3375C516.684 41.3375 516.277 41.2967 515.869 41.2151C513.504 40.8075 512.322 39.3399 512.322 36.8123C512.322 35.4263 512.811 34.0402 513.79 32.6541C516.888 28.4144 523.003 26.2945 532.135 26.2945C532.869 26.2945 533.602 26.2945 534.336 26.2945C545.995 26.9468 551.825 33.1026 551.825 44.7619V70.5672C551.907 74.6439 553.007 76.7637 555.127 76.9268C557.736 76.8453 559.326 73.8285 559.897 67.8766L563.077 67.9989C563.077 68.4066 563.036 68.855 562.954 69.3442C562.302 76.9268 558.837 80.7181 552.559 80.7181ZM528.221 75.8261C530.015 75.8261 531.849 75.4184 533.725 74.6031C538.454 72.3202 541.43 68.3658 542.653 62.74V52.956C536.293 53.0375 531.442 53.4452 528.099 54.179C521.821 55.6466 518.682 59.1117 518.682 64.5745C518.682 65.9606 518.804 67.2243 519.049 68.3658C520.19 73.3393 523.248 75.8261 528.221 75.8261Z" fill="#F58025"/>
<path d="M469.361 4.892C477.677 4.892 485.015 7.29724 491.375 12.1077C500.751 19.1196 505.439 29.352 505.439 42.8051C505.439 54.3013 501.567 63.6776 493.821 70.9341C486.891 77.4568 478.615 80.7181 468.994 80.7181C460.433 80.7181 452.85 78.109 446.246 72.8909C437.196 65.716 432.671 55.5243 432.671 42.3159C432.671 30.9012 436.503 21.6471 444.167 14.5537C451.179 8.11257 459.577 4.892 469.361 4.892ZM469.361 77.2937C472.622 77.2937 475.639 76.6822 478.411 75.4592C488.277 71.1379 493.209 60.0902 493.209 42.3159C493.128 19.8126 485.056 8.47947 468.994 8.3164C466.711 8.3164 464.55 8.561 462.512 9.0502C450.771 12.1485 444.901 23.4001 444.901 42.8051C444.901 48.6755 445.472 53.8528 446.613 58.3372C449.956 70.9749 457.538 77.2937 469.361 77.2937Z" fill="#F58025"/>
<path d="M375 76.4376C375.489 76.4376 375.897 76.4784 376.223 76.5599C377.446 76.723 378.057 77.7014 378.057 79.4951H351.151V76.4376C353.923 76.4376 355.921 76.2338 357.144 75.8261C359.264 75.0923 360.324 72.8501 360.324 69.0996V30.575H351.151V27.5175H368.885L369.374 39.7475C370.271 37.4646 371.453 35.3855 372.921 33.5102C376.834 28.6998 381.808 26.2945 387.841 26.2945C390.858 26.2945 393.671 27.0691 396.28 28.6182C401.906 32.1242 404.719 37.9538 404.719 46.1072V76.4376H410.834C411.323 76.4376 411.73 76.4784 412.057 76.5599C413.28 76.723 413.891 77.7014 413.891 79.4951H386.374V76.4376C389.146 76.4376 391.143 76.2338 392.366 75.8261C394.486 75.0923 395.546 72.8501 395.546 69.0996V44.8842C395.546 42.5197 395.179 40.3998 394.445 38.5245C392.652 33.8771 389.268 31.5534 384.294 31.5534C382.012 31.5534 379.769 32.2465 377.568 33.6325C372.431 36.9754 369.741 42.4381 369.496 50.0208V76.4376H375Z" fill="#F58025"/>
<path d="M343.779 80.7181C338.072 80.6366 334.729 76.9676 333.751 69.7111C333.017 71.4233 331.916 73.054 330.449 74.6031C326.372 78.6798 321.358 80.7181 315.406 80.7181C312.96 80.7181 310.636 80.2697 308.435 79.3728C302.972 77.0899 300.24 72.8501 300.24 66.6536C300.24 64.8599 300.485 63.1884 300.974 61.6393C303.746 53.649 314.713 49.6539 333.873 49.6539V41.9489C333.628 34.0402 329.674 29.8412 322.01 29.352C318.749 29.352 316.343 30.3712 314.794 32.4095C314.387 32.9803 313.612 34.774 312.47 37.7907C311.574 40.1552 310.188 41.3375 308.312 41.3375C307.905 41.3375 307.497 41.2967 307.089 41.2151C304.725 40.8075 303.543 39.3399 303.543 36.8123C303.543 35.4263 304.032 34.0402 305.01 32.6541C308.108 28.4144 314.223 26.2945 323.355 26.2945C324.089 26.2945 324.823 26.2945 325.557 26.2945C337.216 26.9468 343.046 33.1026 343.046 44.7619V70.5672C343.127 74.6439 344.228 76.7637 346.348 76.9268C348.957 76.8453 350.547 73.8285 351.117 67.8766L354.297 67.9989C354.297 68.4066 354.256 68.855 354.175 69.3442C353.523 76.9268 350.057 80.7181 343.779 80.7181ZM319.442 75.8261C321.235 75.8261 323.07 75.4184 324.945 74.6031C329.674 72.3202 332.65 68.3658 333.873 62.74V52.956C327.513 53.0375 322.662 53.4452 319.319 54.179C313.041 55.6466 309.902 59.1117 309.902 64.5745C309.902 65.9606 310.024 67.2243 310.269 68.3658C311.411 73.3393 314.468 75.8261 319.442 75.8261Z" fill="#F58025"/>
<path d="M231.107 76.4376C231.515 76.4376 231.922 76.4784 232.33 76.5599C233.553 76.8045 234.164 77.7829 234.164 79.4951H207.258V76.4376C210.031 76.4376 212.028 76.2338 213.251 75.8261C215.371 75.0923 216.431 72.8501 216.431 69.0996V30.575H207.258V27.5175H224.992L225.481 39.7475C226.296 37.5461 227.397 35.5486 228.783 33.7548C232.615 28.7813 237.467 26.2945 243.337 26.2945C244.886 26.2945 246.394 26.5799 247.862 27.1506C252.836 29.0259 256.056 33.1841 257.524 39.6252C258.176 37.9946 258.991 36.4454 259.97 34.9778C263.72 29.189 268.694 26.2945 274.89 26.2945C277.744 26.2945 280.394 27.0283 282.84 28.4959C288.303 31.8388 291.034 37.7092 291.034 46.1072V76.4376H297.271C297.761 76.4376 298.168 76.4784 298.494 76.5599C299.717 76.723 300.329 77.7014 300.329 79.4951H273.301V76.4376C276.073 76.4376 278.029 76.2338 279.171 75.8261C280.965 75.0923 281.862 72.8501 281.862 69.0996V44.8842C281.862 42.2751 281.454 39.9514 280.639 37.913C278.926 33.5918 275.991 31.4311 271.833 31.4311C270.284 31.4311 268.653 31.8388 266.941 32.6541C262.457 35.0186 259.562 39.1768 258.258 45.1288V46.1072V76.4376H263.761C264.25 76.4376 264.658 76.4784 264.984 76.5599C266.207 76.723 266.819 77.7014 266.819 79.4951H240.524V76.4376C243.296 76.4376 245.253 76.2338 246.394 75.8261C248.188 75.0923 249.085 72.8501 249.085 69.0996V44.8842C249.085 42.4381 248.759 40.2367 248.107 38.2799C246.558 33.7956 243.745 31.5534 239.668 31.5534C237.467 31.5534 235.265 32.3688 233.064 33.9994C228.335 37.5054 225.848 42.8458 225.603 50.0208V76.4376H231.107Z" fill="#F58025"/>
<path d="M194.016 76.4376C194.505 76.4376 194.913 76.4784 195.239 76.5599C196.462 76.723 197.074 77.7014 197.074 79.4951H166.865V76.4376C169.638 76.4376 171.635 76.2338 172.858 75.8261C174.978 75.0923 176.038 72.8501 176.038 69.0996V30.575H166.865V27.5175H184.599L185.088 39.6252C186.148 37.1792 187.575 34.9778 189.369 33.021C193.201 28.8628 197.563 26.7837 202.455 26.7837C203.189 26.7837 203.963 26.8653 204.779 27.0283C208.529 27.8437 210.404 30.0858 210.404 33.7548C210.404 34.244 210.323 34.7332 210.16 35.2224C209.507 37.5869 207.958 38.7691 205.512 38.7691C205.023 38.7691 204.534 38.6876 204.045 38.5245C202.903 38.1984 201.68 36.8939 200.376 34.6109C199.234 32.5726 197.97 31.5534 196.584 31.5534C195.361 31.635 193.853 32.5318 192.059 34.244C187.493 38.7284 185.211 44.6803 185.211 52.0999V76.4376H194.016Z" fill="#F58025"/>
<path d="M144.084 29.352C141.964 29.352 139.966 29.8412 138.091 30.8196C132.384 33.6733 129.326 39.7883 128.919 49.1647L141.882 49.5316C145.633 49.6131 148.527 49.45 150.566 49.0424C154.479 48.1455 156.436 45.6587 156.436 41.582C156.436 39.7883 156.11 38.1169 155.458 36.5677C153.582 31.7573 149.791 29.352 144.084 29.352ZM165.364 67.7543C164.875 68.8958 164.304 70.0372 163.652 71.1787C159.494 77.5383 153.012 80.7181 144.206 80.7181C138.662 80.7181 133.729 79.2913 129.408 76.4376C122.151 71.5456 118.523 64.0445 118.523 53.9344C118.523 48.3901 119.665 43.4166 121.947 39.0137C126.35 30.5343 133.648 26.2945 143.839 26.2945C149.057 26.2945 153.664 27.4768 157.659 29.8412C163.285 33.1026 166.098 37.5054 166.098 43.0497C166.098 46.0664 164.997 48.3901 162.796 50.0208C159.942 52.0591 153.542 52.9967 143.595 52.8337L128.919 52.5891C129 56.0135 129.367 59.1525 130.019 62.0062C132.221 72.1979 137.602 77.2937 146.163 77.2937C146.897 77.2937 147.671 77.2529 148.487 77.1714C154.846 76.3561 159.453 72.8501 162.307 66.6536L165.364 67.7543Z" fill="#F58025"/>
<path d="M79.5977 76.4376C80.0869 76.4376 80.4946 76.4784 80.8207 76.5599C82.0437 76.723 82.6552 77.7014 82.6552 79.4951H55.1377V76.4376C57.9098 76.4376 59.9074 76.2338 61.1304 75.8261C63.2503 75.0923 64.3102 72.8502 64.3102 69.0996V3.05751H55.1377V0H73.4827V39.2584C74.3796 36.8939 75.6841 34.774 77.3963 32.8988C81.473 28.4959 86.5281 26.2945 92.5616 26.2945C95.1706 26.2945 97.6166 26.8653 99.8996 28.0067C105.77 31.1866 108.705 37.22 108.705 46.1072V76.4376H114.82C115.309 76.4376 115.717 76.4784 116.043 76.5599C117.266 76.723 117.878 77.7014 117.878 79.4951H90.9717V76.4376C93.7438 76.4376 95.7006 76.2338 96.8421 75.8261C98.6358 75.0923 99.5327 72.8502 99.5327 69.0996V46.1072C99.5327 43.4166 99.0842 40.9706 98.1874 38.7692C96.2306 34.1218 92.7654 31.7981 87.7918 31.7981C85.5089 31.7981 83.3075 32.4911 81.1876 33.8772C76.051 37.22 73.4827 42.6012 73.4827 50.0208V76.4376H79.5977Z" fill="#F58025"/>
<path d="M52.5356 60.294C52.5356 65.2675 50.7826 69.548 47.2766 73.1355C42.14 78.1906 34.8836 80.7181 25.5072 80.7181C17.5169 80.7181 10.3828 78.639 4.10467 74.4808C4.10467 76.193 4.02314 77.3752 3.86007 78.0275C3.53394 79.169 2.39247 79.7397 0.435669 79.7397V54.4236H4.10467C5.49074 69.5073 12.4211 77.1306 24.8957 77.2937C28.0755 77.2937 30.9699 76.723 33.579 75.5815C39.1233 73.054 41.8954 68.9365 41.8954 63.2292C41.8954 61.0278 41.3655 58.9895 40.3055 57.1142C38.3487 53.7713 33.7013 50.4692 26.3633 47.2079C18.4546 43.7835 13.8072 41.7044 12.4211 40.9706C4.75694 36.6493 0.92487 31.0642 0.92487 24.2154C0.92487 19.6496 2.55554 15.6544 5.81688 12.23C10.7089 7.338 17.5577 4.892 26.3633 4.892C33.6198 4.892 40.1425 6.4819 45.9313 9.66171C45.9313 8.6833 46.0129 7.90874 46.1759 7.338C46.5021 6.115 47.6435 5.5035 49.6003 5.5035V26.906H45.9313C46.0129 22.3402 44.8714 18.4673 42.5069 15.2875C38.9195 10.6401 33.7013 8.3164 26.8525 8.3164C24.0804 8.3164 21.5528 8.76484 19.2699 9.66171C13.9702 11.7816 11.3204 15.5729 11.3204 21.0356C11.3204 23.074 11.8096 24.99 12.788 26.7837C14.6633 30.0451 19.2291 33.2249 26.4856 36.3232C34.4759 39.8291 39.2456 41.9897 40.7947 42.8051C48.6219 47.2079 52.5356 53.0375 52.5356 60.294Z" fill="#F58025"/>
<path d="M643.078 158.704H644.97C645.103 158.704 645.236 158.715 645.369 158.737C645.656 158.803 645.8 159.08 645.8 159.567H637.333V158.704C637.82 158.704 638.208 158.659 638.496 158.571C639.115 158.394 639.425 157.84 639.425 156.911V139.877H637.333V139.047H642.845L643.011 142.368C643.233 141.748 643.554 141.172 643.974 140.641C645.081 139.269 646.553 138.582 648.39 138.582C649.63 138.582 650.725 138.97 651.677 139.745C653.249 141.028 654.035 143.021 654.035 145.721C654.035 147.913 653.448 149.728 652.275 151.166C650.947 152.782 649.231 153.59 647.128 153.59C645.358 153.568 644.007 153.037 643.078 151.997V158.704ZM646.863 140.11C646.177 140.11 645.546 140.353 644.97 140.84C643.686 141.991 643.044 143.972 643.044 146.784C643.044 148.178 643.233 149.373 643.609 150.37C644.229 151.941 645.214 152.727 646.564 152.727C646.852 152.727 647.117 152.694 647.361 152.627C649.154 152.096 650.05 149.938 650.05 146.153C650.028 142.168 648.966 140.154 646.863 140.11Z" fill="#3E2B1D"/>
<path d="M628.99 152.395C629.123 152.395 629.245 152.406 629.356 152.428C629.643 152.472 629.787 152.749 629.787 153.258H624.276L624.11 150.336C623.955 150.668 623.767 151 623.545 151.332C622.483 152.838 621.055 153.59 619.262 153.59C616.119 153.568 614.536 151.731 614.514 148.079V139.877H612.389V139.047H618.166V148.61C618.166 148.898 618.188 149.185 618.233 149.473C618.454 151.133 619.295 151.963 620.756 151.963C621.199 151.963 621.642 151.842 622.084 151.598C623.257 150.89 623.899 149.65 624.01 147.879L624.043 139.877H622.051V139.047H627.696V152.395H628.99Z" fill="#3E2B1D"/>
<path d="M593.687 146.086C593.687 147.658 593.797 148.92 594.019 149.872C594.461 151.775 595.513 152.727 597.173 152.727C597.726 152.727 598.224 152.616 598.667 152.395C600.017 151.664 600.692 149.517 600.692 145.954C600.692 144.448 600.582 143.231 600.36 142.301C599.918 140.398 598.855 139.446 597.173 139.446C596.531 139.446 595.966 139.59 595.479 139.877C594.284 140.652 593.687 142.722 593.687 146.086ZM597.306 138.582C599.076 138.582 600.604 139.058 601.888 140.01C603.747 141.383 604.677 143.364 604.677 145.954C604.677 147.879 604.101 149.539 602.95 150.934C601.489 152.705 599.53 153.59 597.073 153.59C595.28 153.59 593.72 153.059 592.392 151.997C590.576 150.536 589.669 148.521 589.669 145.954C589.669 144.094 590.222 142.5 591.329 141.172C592.79 139.446 594.782 138.582 597.306 138.582Z" fill="#3E2B1D"/>
<path d="M577.806 152.395C577.917 152.395 578.017 152.406 578.105 152.428C578.437 152.472 578.603 152.749 578.603 153.258H569.605V152.395C570.048 152.395 570.413 152.362 570.701 152.295C571.365 152.118 571.697 151.554 571.697 150.602V139.877H569.605V139.047H575.084L575.283 142.168C575.549 141.526 575.914 140.951 576.379 140.442C577.441 139.335 578.648 138.782 579.998 138.782C580.263 138.782 580.529 138.815 580.795 138.881C581.835 139.147 582.355 139.811 582.355 140.873C582.355 141.139 582.3 141.394 582.189 141.637C581.857 142.412 581.293 142.799 580.496 142.799C580.274 142.799 580.064 142.766 579.865 142.7C579.444 142.567 579.046 142.146 578.67 141.438C578.382 140.929 578.094 140.674 577.806 140.674C577.629 140.674 577.419 140.752 577.176 140.907C576.135 141.637 575.538 143.065 575.383 145.19V152.395H577.806Z" fill="#3E2B1D"/>
<path d="M552.829 144.161H561.959V145.057H559.702V153.258L556.083 152.461C554.622 153.192 552.995 153.557 551.202 153.557C548.944 153.557 546.93 152.959 545.159 151.764C542.414 149.883 541.042 147.027 541.042 143.198C541.042 140.099 542.004 137.609 543.93 135.727C545.834 133.912 548.236 133.004 551.135 133.004C552.773 133.004 554.334 133.336 555.817 134L558.872 133.37L559.004 140.209H558.042C557.776 139.081 557.455 138.107 557.079 137.288C556.016 135.096 554.256 134 551.799 134C547.704 134.023 545.646 137.133 545.624 143.331C545.624 144.969 545.756 146.385 546.022 147.581C546.752 150.901 548.623 152.561 551.633 152.561C553.293 152.561 554.655 152.041 555.717 151V145.057H552.829V144.161Z" fill="#3E2B1D"/>
<path d="M519.574 152.395C519.707 152.395 519.84 152.406 519.973 152.428C520.26 152.495 520.404 152.771 520.404 153.258H511.672V152.395C512.38 152.395 512.9 152.351 513.232 152.262C513.896 152.063 514.229 151.487 514.229 150.536V132.539H511.672V131.676H517.881V152.395H519.574Z" fill="#3E2B1D"/>
<path d="M501.602 153.59C499.854 153.568 498.802 152.561 498.448 150.569C498.293 150.967 498.083 151.355 497.817 151.731C496.843 152.97 495.482 153.59 493.733 153.59C493.113 153.59 492.538 153.502 492.007 153.325C490.346 152.771 489.516 151.543 489.516 149.639C489.538 146.695 492.449 145.179 498.249 145.09V142.965C498.249 142.545 498.227 142.157 498.182 141.803C497.961 140.232 497.186 139.446 495.858 139.446C495.504 139.446 495.183 139.512 494.895 139.645C494.475 139.866 494.132 140.431 493.866 141.338C493.777 141.604 493.711 141.792 493.667 141.903C493.357 142.722 492.803 143.131 492.007 143.131C491.807 143.131 491.608 143.098 491.409 143.032C490.701 142.81 490.346 142.323 490.346 141.571C490.346 141.172 490.468 140.796 490.712 140.442C491.531 139.202 493.335 138.582 496.124 138.582C496.744 138.582 497.33 138.638 497.884 138.748C500.584 139.28 501.934 140.973 501.934 143.829V150.801C501.934 151.864 502.189 152.417 502.698 152.461C503.362 152.439 503.76 151.653 503.893 150.104L504.757 150.137C504.712 150.757 504.635 151.288 504.524 151.731C504.148 152.97 503.174 153.59 501.602 153.59ZM495.26 152.196C495.526 152.196 495.814 152.129 496.124 151.997C497.164 151.532 497.872 150.547 498.249 149.041V146.02C497.142 146.042 496.234 146.153 495.526 146.352C494.021 146.75 493.268 147.702 493.268 149.207C493.268 149.318 493.268 149.429 493.268 149.539C493.357 151.31 494.021 152.196 495.26 152.196Z" fill="#3E2B1D"/>
<path d="M471.611 140.01V139.147H473.902V135.993L477.554 135.295V139.147H482.203V140.01H477.554V150.071C477.554 150.292 477.565 150.513 477.587 150.735C477.742 151.997 478.285 152.627 479.214 152.627C480.299 152.605 481.085 151.609 481.572 149.639L482.468 149.772C482.335 150.458 482.158 151.045 481.937 151.532C481.317 152.926 480.133 153.623 478.384 153.623C475.595 153.513 474.101 151.853 473.902 148.643V140.01H471.611Z" fill="#3E2B1D"/>
<path d="M453.838 152.395C453.971 152.395 454.104 152.406 454.237 152.428C454.524 152.495 454.668 152.771 454.668 153.258H447.031V152.395C447.43 152.395 447.773 152.362 448.061 152.295C448.791 152.14 449.156 151.576 449.156 150.602V139.877H447.031V139.047H452.61L452.776 141.803C452.997 141.338 453.285 140.896 453.639 140.475C454.746 139.213 456.096 138.582 457.69 138.582C458.354 138.582 458.974 138.704 459.549 138.948C461.364 139.7 462.272 141.383 462.272 143.995V152.395H463.567C463.699 152.395 463.832 152.406 463.965 152.428C464.253 152.495 464.397 152.771 464.397 153.258H456.793V152.395C457.258 152.395 457.612 152.351 457.856 152.262C458.365 152.085 458.619 151.532 458.619 150.602V143.497C458.619 143.01 458.564 142.567 458.453 142.168C458.121 140.862 457.336 140.209 456.096 140.209C455.675 140.209 455.255 140.32 454.834 140.541C453.661 141.206 452.997 142.423 452.842 144.194L452.809 152.395H453.838Z" fill="#3E2B1D"/>
<path d="M432.911 139.446C432.668 139.446 432.413 139.479 432.147 139.545C430.576 140.032 429.746 141.847 429.657 144.991L432.214 145.09C433.144 145.112 433.852 145.057 434.339 144.924C435.091 144.659 435.468 144.006 435.468 142.965C435.468 142.589 435.435 142.224 435.368 141.87C435.103 140.254 434.284 139.446 432.911 139.446ZM438.987 149.905C438.854 150.237 438.688 150.569 438.489 150.901C437.36 152.694 435.534 153.59 433.011 153.59C431.528 153.59 430.188 153.258 428.993 152.594C426.757 151.288 425.64 149.119 425.64 146.086C425.64 144.227 426.116 142.644 427.067 141.338C428.418 139.501 430.366 138.582 432.911 138.582C434.306 138.582 435.556 138.848 436.663 139.379C438.434 140.265 439.319 141.582 439.319 143.331C439.319 143.817 439.209 144.238 438.987 144.592C438.323 145.61 436.331 146.086 433.011 146.02L429.657 145.954C429.657 145.976 429.657 145.998 429.657 146.02C429.768 150.425 431.118 152.627 433.708 152.627C434.195 152.627 434.671 152.55 435.136 152.395C436.53 151.952 437.549 151.034 438.19 149.639L438.987 149.905Z" fill="#3E2B1D"/>
<path d="M397.01 133.336H406.638C409.051 133.336 411.154 133.912 412.947 135.063C415.714 136.856 417.097 139.612 417.097 143.331C417.097 146.252 416.123 148.632 414.176 150.469C412.205 152.329 409.704 153.258 406.672 153.258H397.01V152.362H399.666V134.233H397.01V133.336ZM406.672 134.233H403.75V152.362H406.672C407.402 152.362 408.066 152.262 408.664 152.063C411.254 151.222 412.549 148.267 412.549 143.198C412.549 141.161 412.349 139.479 411.951 138.151C411.132 135.539 409.372 134.233 406.672 134.233Z" fill="#3E2B1D"/>
<path d="M366.544 140.01V139.147H368.835V135.993L372.488 135.295V139.147H377.136V140.01H372.488V150.071C372.488 150.292 372.499 150.513 372.521 150.735C372.676 151.997 373.218 152.627 374.148 152.627C375.232 152.605 376.018 151.609 376.505 149.639L377.402 149.772C377.269 150.458 377.092 151.045 376.87 151.532C376.251 152.926 375.066 153.623 373.318 153.623C370.529 153.513 369.034 151.853 368.835 148.643V140.01H366.544Z" fill="#3E2B1D"/>
<path d="M348.771 152.395C348.904 152.395 349.037 152.406 349.17 152.428C349.458 152.495 349.602 152.771 349.602 153.258H341.965V152.395C342.363 152.395 342.706 152.362 342.994 152.295C343.725 152.14 344.09 151.576 344.09 150.602V139.877H341.965V139.047H347.543L347.709 141.803C347.93 141.338 348.218 140.896 348.572 140.475C349.679 139.213 351.029 138.582 352.623 138.582C353.287 138.582 353.907 138.704 354.482 138.948C356.298 139.7 357.205 141.383 357.205 143.995V152.395H358.5C358.633 152.395 358.766 152.406 358.898 152.428C359.186 152.495 359.33 152.771 359.33 153.258H351.727V152.395C352.191 152.395 352.546 152.351 352.789 152.262C353.298 152.085 353.553 151.532 353.553 150.602V143.497C353.553 143.01 353.497 142.567 353.387 142.168C353.055 140.862 352.269 140.209 351.029 140.209C350.609 140.209 350.188 140.32 349.768 140.541C348.594 141.206 347.93 142.423 347.775 144.194L347.742 152.395H348.771Z" fill="#3E2B1D"/>
<path d="M331.829 153.59C330.08 153.568 329.029 152.561 328.675 150.569C328.52 150.967 328.309 151.355 328.044 151.731C327.07 152.97 325.708 153.59 323.96 153.59C323.34 153.59 322.764 153.502 322.233 153.325C320.573 152.771 319.743 151.543 319.743 149.639C319.765 146.695 322.676 145.179 328.475 145.09V142.965C328.475 142.545 328.453 142.157 328.409 141.803C328.188 140.232 327.413 139.446 326.085 139.446C325.731 139.446 325.41 139.512 325.122 139.645C324.701 139.866 324.358 140.431 324.093 141.338C324.004 141.604 323.938 141.792 323.893 141.903C323.583 142.722 323.03 143.131 322.233 143.131C322.034 143.131 321.835 143.098 321.635 143.032C320.927 142.81 320.573 142.323 320.573 141.571C320.573 141.172 320.695 140.796 320.938 140.442C321.757 139.202 323.561 138.582 326.35 138.582C326.97 138.582 327.557 138.638 328.11 138.748C330.811 139.28 332.161 140.973 332.161 143.829V150.801C332.161 151.864 332.415 152.417 332.925 152.461C333.589 152.439 333.987 151.653 334.12 150.104L334.983 150.137C334.939 150.757 334.861 151.288 334.751 151.731C334.374 152.97 333.4 153.59 331.829 153.59ZM325.487 152.196C325.753 152.196 326.04 152.129 326.35 151.997C327.391 151.532 328.099 150.547 328.475 149.041V146.02C327.369 146.042 326.461 146.153 325.753 146.352C324.247 146.75 323.495 147.702 323.495 149.207C323.495 149.318 323.495 149.429 323.495 149.539C323.583 151.31 324.247 152.196 325.487 152.196Z" fill="#3E2B1D"/>
<path d="M311.333 152.395C311.466 152.395 311.599 152.406 311.732 152.428C312.02 152.495 312.164 152.771 312.164 153.258H303.431V152.395C304.139 152.395 304.66 152.351 304.992 152.262C305.656 152.063 305.988 151.487 305.988 150.536V132.539H303.431V131.676H309.64V152.395H311.333Z" fill="#3E2B1D"/>
<path d="M284.662 158.704H286.555C286.688 158.704 286.821 158.715 286.953 158.737C287.241 158.803 287.385 159.08 287.385 159.567H278.918V158.704C279.405 158.704 279.793 158.659 280.08 158.571C280.7 158.394 281.01 157.84 281.01 156.911V139.877H278.918V139.047H284.43L284.596 142.368C284.817 141.748 285.138 141.172 285.559 140.641C286.666 139.269 288.138 138.582 289.975 138.582C291.214 138.582 292.31 138.97 293.262 139.745C294.834 141.028 295.619 143.021 295.619 145.721C295.619 147.913 295.033 149.728 293.86 151.166C292.531 152.782 290.816 153.59 288.713 153.59C286.942 153.568 285.592 153.037 284.662 151.997V158.704ZM288.448 140.11C287.761 140.11 287.13 140.353 286.555 140.84C285.271 141.991 284.629 143.972 284.629 146.784C284.629 148.178 284.817 149.373 285.194 150.37C285.813 151.941 286.798 152.727 288.149 152.727C288.436 152.727 288.702 152.694 288.946 152.627C290.739 152.096 291.635 149.938 291.635 146.153C291.613 142.168 290.55 140.154 288.448 140.11Z" fill="#3E2B1D"/>
<path d="M252.646 152.395C252.756 152.395 252.856 152.406 252.944 152.428C253.276 152.472 253.442 152.749 253.442 153.258H245.972V152.395C246.37 152.395 246.713 152.362 247.001 152.295C247.731 152.14 248.097 151.576 248.097 150.602V139.877H245.972V139.047H251.55L251.716 141.704C251.804 141.526 251.893 141.349 251.981 141.172C252.978 139.446 254.45 138.582 256.397 138.582C256.774 138.582 257.139 138.638 257.493 138.748C258.866 139.169 259.795 140.198 260.282 141.836C260.304 141.77 260.338 141.692 260.382 141.604C261.422 139.59 262.983 138.582 265.063 138.582C265.838 138.582 266.558 138.793 267.222 139.213C268.683 140.121 269.413 141.67 269.413 143.862V152.395H270.675C270.808 152.395 270.94 152.406 271.073 152.428C271.361 152.495 271.505 152.771 271.505 153.258H264.034V152.395C264.521 152.395 264.886 152.34 265.13 152.229C265.55 152.052 265.761 151.51 265.761 150.602V143.497C265.761 142.899 265.683 142.345 265.528 141.836C265.13 140.707 264.422 140.143 263.403 140.143C263.116 140.143 262.828 140.209 262.54 140.342C261.478 140.851 260.825 141.925 260.581 143.563V143.995V152.395H261.444C261.577 152.395 261.71 152.406 261.843 152.428C262.131 152.495 262.274 152.771 262.274 153.258H255.202V152.395C255.689 152.395 256.054 152.34 256.298 152.229C256.718 152.052 256.929 151.51 256.929 150.602V143.497C256.929 142.877 256.851 142.323 256.696 141.836C256.32 140.752 255.678 140.209 254.771 140.209C254.416 140.209 254.062 140.309 253.708 140.508C252.579 141.15 251.937 142.379 251.782 144.194L251.749 152.395H252.646Z" fill="#3E2B1D"/>
<path d="M238.293 153.258H228.896V152.362H231.552V134.233H228.896V133.336H238.293V134.233H235.636V152.362H237.396C237.861 152.406 238.16 152.705 238.293 153.258Z" fill="#3E2B1D"/>
<path d="M197.833 136.391C197.833 137.276 198.221 138.483 198.995 140.01C199.593 139.789 200.146 139.501 200.656 139.147C201.762 138.306 202.316 137.365 202.316 136.325C202.316 136.148 202.305 135.97 202.282 135.793C202.105 134.532 201.353 133.901 200.025 133.901C199.737 133.901 199.46 133.945 199.195 134.034C198.287 134.388 197.833 135.174 197.833 136.391ZM198.829 152.594C200.268 152.594 201.574 152.185 202.747 151.366C199.848 148.001 197.656 144.869 196.173 141.969C195.133 142.478 194.601 144.006 194.579 146.551C194.579 147.481 194.635 148.289 194.745 148.975C195.166 151.388 196.527 152.594 198.829 152.594ZM207.363 142.666C207.363 145.323 206.798 147.581 205.669 149.44C206.422 150.325 207.296 151.31 208.292 152.395H209.056C209.167 152.395 209.266 152.406 209.355 152.428C209.709 152.472 209.886 152.749 209.886 153.258H204.441C204.197 152.993 203.81 152.572 203.279 151.997C201.795 153.037 199.958 153.568 197.767 153.59C195.93 153.59 194.391 153.136 193.152 152.229C191.58 151.056 190.794 149.451 190.794 147.414C190.794 146.861 190.861 146.319 190.993 145.788C191.547 143.508 193.152 141.98 195.808 141.206C195.077 139.612 194.701 138.295 194.679 137.254C194.679 136.369 194.911 135.583 195.376 134.897C196.24 133.635 197.634 133.004 199.56 133.004C200.135 133.004 200.667 133.093 201.154 133.27C202.548 133.757 203.245 134.775 203.245 136.325C203.245 136.789 203.135 137.276 202.913 137.786C202.271 139.18 201.098 140.176 199.394 140.774C200.722 143.12 202.603 145.754 205.038 148.676C205.968 146.95 206.433 144.924 206.433 142.6H204.607V141.737H209.388C209.388 141.914 209.366 142.08 209.322 142.235C209.255 142.5 208.967 142.633 208.458 142.633L207.429 142.666H207.329H207.363Z" fill="#3E2B1D"/>
<path d="M157.507 146.186C157.507 144.194 158.06 142.523 159.167 141.172C160.561 139.446 162.498 138.582 164.977 138.582C166.549 138.582 167.899 138.914 169.028 139.579C170.246 140.309 170.854 141.172 170.854 142.168C170.854 142.323 170.832 142.489 170.788 142.666C170.544 143.441 169.925 143.829 168.928 143.829C168.486 143.806 168.121 143.707 167.833 143.53C167.456 143.264 167.191 142.644 167.036 141.67C166.992 141.272 166.947 140.973 166.903 140.774C166.66 139.866 166.018 139.413 164.977 139.413C164.734 139.413 164.479 139.435 164.214 139.479C162.421 139.9 161.524 142.135 161.524 146.186C161.546 150.436 162.863 152.583 165.475 152.627C165.94 152.627 166.383 152.572 166.803 152.461C168.419 152.085 169.57 151.166 170.257 149.706L171.12 149.938C170.921 150.469 170.633 150.956 170.257 151.399C169.039 152.86 167.279 153.59 164.977 153.59C163.45 153.59 162.1 153.269 160.927 152.627C158.647 151.366 157.507 149.219 157.507 146.186Z" fill="#3E2B1D"/>
<path d="M148.765 152.395C148.876 152.395 148.975 152.406 149.064 152.428C149.396 152.472 149.562 152.749 149.562 153.258H141.593V152.395C142.036 152.395 142.39 152.362 142.656 152.295C143.386 152.118 143.751 151.554 143.751 150.602V139.877H141.593V139.047H147.404V152.395H148.765ZM147.736 134.532C147.736 134.908 147.647 135.262 147.47 135.594C147.05 136.369 146.386 136.756 145.478 136.756C145.124 136.756 144.781 136.679 144.449 136.524C143.63 136.125 143.22 135.461 143.22 134.532C143.22 134.178 143.309 133.823 143.486 133.469C143.906 132.65 144.57 132.241 145.478 132.241C145.832 132.241 146.175 132.329 146.507 132.506C147.326 132.949 147.736 133.624 147.736 134.532Z" fill="#3E2B1D"/>
<path d="M123.621 140.01V139.147H125.912V135.993L129.565 135.295V139.147H134.213V140.01H129.565V150.071C129.565 150.292 129.576 150.513 129.598 150.735C129.753 151.997 130.295 152.627 131.225 152.627C132.309 152.605 133.095 151.609 133.582 149.639L134.479 149.772C134.346 150.458 134.169 151.045 133.948 151.532C133.328 152.926 132.143 153.623 130.395 153.623C127.606 153.513 126.112 151.853 125.912 148.643V140.01H123.621Z" fill="#3E2B1D"/>
<path d="M109.7 139.446C109.457 139.446 109.202 139.479 108.937 139.545C107.365 140.032 106.535 141.847 106.446 144.991L109.003 145.09C109.933 145.112 110.641 145.057 111.128 144.924C111.881 144.659 112.257 144.006 112.257 142.965C112.257 142.589 112.224 142.224 112.157 141.87C111.892 140.254 111.073 139.446 109.7 139.446ZM115.776 149.905C115.644 150.237 115.478 150.569 115.278 150.901C114.149 152.694 112.323 153.59 109.8 153.59C108.317 153.59 106.978 153.258 105.782 152.594C103.547 151.288 102.429 149.119 102.429 146.086C102.429 144.227 102.905 142.644 103.856 141.338C105.207 139.501 107.155 138.582 109.7 138.582C111.095 138.582 112.345 138.848 113.452 139.379C115.223 140.265 116.108 141.582 116.108 143.331C116.108 143.817 115.998 144.238 115.776 144.592C115.112 145.61 113.12 146.086 109.8 146.02L106.446 145.954C106.446 145.976 106.446 145.998 106.446 146.02C106.557 150.425 107.907 152.627 110.497 152.627C110.984 152.627 111.46 152.55 111.925 152.395C113.319 151.952 114.338 151.034 114.979 149.639L115.776 149.905Z" fill="#3E2B1D"/>
<path d="M75.7908 152.395C75.9014 152.395 76.0011 152.406 76.0896 152.428C76.4216 152.472 76.5876 152.749 76.5876 153.258H69.1169V152.395C69.5154 152.395 69.8585 152.362 70.1462 152.295C70.8767 152.14 71.2419 151.576 71.2419 150.602V139.877H69.1169V139.047H74.6951L74.8611 141.704C74.9496 141.526 75.0382 141.349 75.1267 141.172C76.1228 139.446 77.5948 138.582 79.5427 138.582C79.919 138.582 80.2843 138.638 80.6384 138.748C82.0108 139.169 82.9405 140.198 83.4275 141.836C83.4496 141.77 83.4828 141.692 83.5271 141.604C84.5675 139.59 86.128 138.582 88.2087 138.582C88.9835 138.582 89.7029 138.793 90.3669 139.213C91.8279 140.121 92.5583 141.67 92.5583 143.862V152.395H93.8201C93.9529 152.395 94.0857 152.406 94.2185 152.428C94.5063 152.495 94.6501 152.771 94.6501 153.258H87.1794V152.395C87.6664 152.395 88.0317 152.34 88.2751 152.229C88.6957 152.052 88.906 151.51 88.906 150.602V143.497C88.906 142.899 88.8285 142.345 88.6736 141.836C88.2751 140.707 87.5668 140.143 86.5486 140.143C86.2608 140.143 85.9731 140.209 85.6853 140.342C84.6228 140.851 83.9698 141.925 83.7263 143.563V143.995V152.395H84.5896C84.7224 152.395 84.8552 152.406 84.988 152.428C85.2758 152.495 85.4197 152.771 85.4197 153.258H78.3474V152.395C78.8344 152.395 79.1996 152.34 79.4431 152.229C79.8637 152.052 80.074 151.51 80.074 150.602V143.497C80.074 142.877 79.9965 142.323 79.8416 141.836C79.4653 140.752 78.8233 140.209 77.9158 140.209C77.5616 140.209 77.2074 140.309 76.8533 140.508C75.7244 141.15 75.0824 142.379 74.9275 144.194L74.8943 152.395H75.7908Z" fill="#3E2B1D"/>
<path d="M55.0298 152.661C56.5129 152.661 57.4315 152.163 57.7856 151.166C57.8521 150.945 57.8853 150.724 57.8853 150.502C57.8853 149.44 57.188 148.543 55.7935 147.813C55.4836 147.658 54.9966 147.437 54.3325 147.149C52.6281 146.396 51.4881 145.71 50.9126 145.09C50.3149 144.382 50.0161 143.563 50.0161 142.633C50.0161 140.885 50.9679 139.678 52.8716 139.014C53.7127 138.726 54.6535 138.582 55.6938 138.582C57.3097 138.582 58.6379 138.892 59.6782 139.512C59.6782 138.848 59.8553 138.483 60.2095 138.416C60.3201 138.394 60.4308 138.383 60.5415 138.383V142.534H59.5454C59.4569 140.519 58.3501 139.501 56.2251 139.479C54.742 139.479 53.8234 139.944 53.4692 140.873C53.3807 141.117 53.3364 141.36 53.3364 141.604C53.3364 142.534 54.0005 143.342 55.3286 144.028C55.6164 144.161 56.0812 144.371 56.7231 144.659C58.4718 145.411 59.634 146.109 60.2095 146.75C60.8735 147.503 61.2056 148.388 61.2056 149.407C61.2056 151.288 60.2316 152.55 58.2837 153.192C57.4868 153.457 56.6014 153.59 55.6274 153.59C53.7681 153.59 52.2075 153.225 50.9458 152.495C50.9458 153.07 50.8019 153.402 50.5142 153.491C50.3813 153.513 50.2264 153.524 50.0493 153.524V148.477H51.1118C51.1561 151.244 52.4621 152.638 55.0298 152.661Z" fill="#3E2B1D"/>
<path d="M30.4504 146.086C30.4504 147.658 30.5611 148.92 30.7825 149.872C31.2252 151.775 32.2766 152.727 33.9368 152.727C34.4902 152.727 34.9882 152.616 35.4309 152.395C36.7812 151.664 37.4563 149.517 37.4563 145.954C37.4563 144.448 37.3456 143.231 37.1243 142.301C36.6816 140.398 35.6191 139.446 33.9368 139.446C33.2948 139.446 32.7304 139.59 32.2434 139.877C31.0481 140.652 30.4504 142.722 30.4504 146.086ZM34.0696 138.582C35.8404 138.582 37.3678 139.058 38.6516 140.01C40.511 141.383 41.4407 143.364 41.4407 145.954C41.4407 147.879 40.8652 149.539 39.7141 150.934C38.2532 152.705 36.2942 153.59 33.8372 153.59C32.0442 153.59 30.4836 153.059 29.1555 151.997C27.3404 150.536 26.4329 148.521 26.4329 145.954C26.4329 144.094 26.9862 142.5 28.093 141.172C29.554 139.446 31.5461 138.582 34.0696 138.582Z" fill="#3E2B1D"/>
<path d="M17.2266 151.897C15.168 153.004 12.9987 153.568 10.7188 153.59C7.55339 153.59 4.99674 152.561 3.04883 150.502C1.21159 148.554 0.292969 146.142 0.292969 143.264C0.292969 140.873 0.979167 138.748 2.35156 136.889C4.27734 134.299 7.06641 133.004 10.7188 133.004C13.1315 133.004 15.2565 133.569 17.0938 134.698C17.0938 134.277 17.1159 133.956 17.1602 133.735C17.2708 133.359 17.6029 133.17 18.1562 133.17L18.2559 139.579H17.1934C16.9941 138.87 16.7728 138.228 16.5293 137.653C15.4225 135.196 13.6185 133.967 11.1172 133.967C10.3424 133.967 9.62305 134.089 8.95898 134.332C6.25846 135.395 4.9082 138.35 4.9082 143.198C4.93034 149.44 6.93359 152.583 10.918 152.627C11.2943 152.627 11.6706 152.605 12.0469 152.561C14.6589 152.185 16.4297 150.325 17.3594 146.983H18.3555V153.424C18.112 153.424 17.9128 153.402 17.7578 153.358C17.3815 153.247 17.2044 152.76 17.2266 151.897Z" fill="#3E2B1D"/>
<path d="M0.459106 87.9486C11.3619 89.5603 21.8121 91.077 32.6625 92.5805C227.24 122.096 425.223 118.055 621.329 99.0348C632.363 98.0165 642.981 97.01 654.099 95.921C643.011 97.2774 632.8 99.1402 621.792 100.426C426.35 124.253 227.496 133.255 31.123 108.384C20.1881 107.141 11.4424 105.453 0.458693 104.102L0.459106 87.9486Z" fill="#F58025"/>
</g>
<defs>
<clipPath id="clip0_1004_4576">
<rect width="654.596" height="159.567" fill="white"/>
</clipPath>
</defs>
</svg>
